<svg id="Layer_1" data-name="Layer 1" xmlns="http://www.w3.org/2000/svg" xmlns:xlink="http://www.w3.org/1999/xlink" viewBox="0 0 512 512"><image width="1170" height="1192" transform="translate(201.825 -577.256) scale(0.5)" xlink:href="../../../../../Users/kavya/Desktop/Paint%20icon%20/Screenshot%202022-02-23%20at%2017.28.59.png"/><line x1="191.164" y1="78.091" x2="191.164" y2="433.909" style="fill:none;stroke:#000;stroke-linecap:round;stroke-linejoin:round;stroke-width:10px"/><line x1="233.177" y1="78.091" x2="233.177" y2="433.909" style="fill:none;stroke:#000;stroke-linecap:round;stroke-linejoin:round;stroke-width:10px"/><circle cx="147.095" cy="97.179" r="3.151" style="fill:none;stroke:#000;stroke-linecap:round;stroke-linejoin:round;stroke-width:10px"/><circle cx="126.089" cy="137.879" r="3.151" style="fill:none;stroke:#000;stroke-linecap:round;stroke-linejoin:round;stroke-width:10px"/><circle cx="147.095" cy="178.579" r="3.151" style="fill:none;stroke:#000;stroke-linecap:round;stroke-linejoin:round;stroke-width:10px"/><circle cx="126.089" cy="219.28" r="3.151" style="fill:none;stroke:#000;stroke-linecap:round;stroke-linejoin:round;stroke-width:10px"/><circle cx="147.095" cy="259.98" r="3.151" style="fill:none;stroke:#000;stroke-linecap:round;stroke-linejoin:round;stroke-width:10px"/><circle cx="126.089" cy="300.68" r="3.151" style="fill:none;stroke:#000;stroke-linecap:round;stroke-linejoin:round;stroke-width:10px"/><circle cx="147.095" cy="341.381" r="3.151" style="fill:none;stroke:#000;stroke-linecap:round;stroke-linejoin:round;stroke-width:10px"/><circle cx="126.089" cy="382.081" r="3.151" style="fill:none;stroke:#000;stroke-linecap:round;stroke-linejoin:round;stroke-width:10px"/><circle cx="147.095" cy="422.781" r="3.151" style="fill:none;stroke:#000;stroke-linecap:round;stroke-linejoin:round;stroke-width:10px"/><path d="M387.119,354.448c-20.651-3.082-23.582,16.56-44.232,13.479S325.165,345.2,304.511,342.12s-23.584,16.56-44.237,13.478" style="fill:none;stroke:#000;stroke-linecap:round;stroke-linejoin:round;stroke-width:10px"/><path d="M387.119,420.464c-20.651-3.082-23.582,16.56-44.232,13.478s-17.722-22.724-38.376-25.806-23.584,16.56-44.237,13.477" style="fill:none;stroke:#000;stroke-linecap:round;stroke-linejoin:round;stroke-width:10px"/><path d="M387.119,288.433c-20.651-3.082-23.582,16.56-44.232,13.478s-17.722-22.724-38.376-25.806-23.584,16.559-44.237,13.477" style="fill:none;stroke:#000;stroke-linecap:round;stroke-linejoin:round;stroke-width:10px"/><path d="M389.062,222.417c-20.65-3.082-23.581,16.56-44.232,13.478s-17.722-22.724-38.375-25.806-23.584,16.56-44.238,13.478" style="fill:none;stroke:#000;stroke-linecap:round;stroke-linejoin:round;stroke-width:10px"/><path d="M387.119,156.4c-20.651-3.081-23.582,16.561-44.232,13.479s-17.722-22.724-38.376-25.806-23.584,16.559-44.237,13.477" style="fill:none;stroke:#000;stroke-linecap:round;stroke-linejoin:round;stroke-width:10px"/><path d="M389.062,90.386c-20.65-3.082-23.581,16.56-44.232,13.478S327.108,81.14,306.455,78.058s-23.584,16.56-44.238,13.477" style="fill:none;stroke:#000;stroke-linecap:round;stroke-linejoin:round;stroke-width:10px"/></svg>