<svg id="Layer_1" data-name="Layer 1" xmlns="http://www.w3.org/2000/svg" viewBox="0 0 512 512"><g id="_Group_3" data-name=" Group 3"><path id="_Path_6" data-name=" Path 6" d="M161.628,106.749a130.016,130.016,0,0,1,192.8,22.793" style="fill:none;stroke:#000;stroke-linecap:round;stroke-linejoin:round;stroke-width:10px"/></g><polygon points="185.226 130.326 137.647 130.326 137.647 82.747 185.226 130.326" style="fill:none;stroke:#000;stroke-linecap:round;stroke-linejoin:round;stroke-width:10px"/><g id="_Group_3-2" data-name=" Group 3"><path id="_Path_6-2" data-name=" Path 6" d="M350.372,415.251a130.016,130.016,0,0,1-192.8-22.793" style="fill:none;stroke:#000;stroke-linecap:round;stroke-linejoin:round;stroke-width:10px"/></g><polygon points="326.774 391.674 374.353 391.674 374.353 439.253 326.774 391.674" style="fill:none;stroke:#000;stroke-linecap:round;stroke-linejoin:round;stroke-width:10px"/><path d="M44.326,350.505h0a82.185,82.185,0,0,1-9.15-105.359l67.275-95.817,67.274,95.817a82.2,82.2,0,0,1-9.15,105.359h0A82.2,82.2,0,0,1,44.326,350.505Z" style="fill:none;stroke:#000;stroke-linejoin:round;stroke-width:10px"/><line x1="337.824" y1="232.828" x2="482.126" y2="232.828" style="fill:none;stroke:#000;stroke-linecap:round;stroke-linejoin:round;stroke-width:10px"/><line x1="354.24" y1="208.976" x2="466.334" y2="208.976" style="fill:none;stroke:#000;stroke-linecap:round;stroke-linejoin:round;stroke-width:10px"/><line x1="371.458" y1="185.123" x2="450.048" y2="185.123" style="fill:none;stroke:#000;stroke-linecap:round;stroke-linejoin:round;stroke-width:10px"/><line x1="388.676" y1="161.271" x2="433.763" y2="161.271" style="fill:none;stroke:#000;stroke-linecap:round;stroke-linejoin:round;stroke-width:10px"/><line x1="405.894" y1="137.419" x2="417.478" y2="137.419" style="fill:none;stroke:#000;stroke-linecap:round;stroke-linejoin:round;stroke-width:10px"/><line x1="329.249" y1="256.681" x2="490.702" y2="256.681" style="fill:none;stroke:#000;stroke-linecap:round;stroke-linejoin:round;stroke-width:10px"/><line x1="327.772" y1="280.533" x2="491.751" y2="280.533" style="fill:none;stroke:#000;stroke-linecap:round;stroke-linejoin:round;stroke-width:10px"/><line x1="334.325" y1="304.386" x2="485.626" y2="304.386" style="fill:none;stroke:#000;stroke-linecap:round;stroke-linejoin:round;stroke-width:10px"/><line x1="351.093" y1="328.238" x2="470.12" y2="328.238" style="fill:none;stroke:#000;stroke-linecap:round;stroke-linejoin:round;stroke-width:10px"/><line x1="388.795" y1="352.09" x2="429.396" y2="352.09" style="fill:none;stroke:#000;stroke-linecap:round;stroke-linejoin:round;stroke-width:10px"/></svg>