<svg id="Layer_1" data-name="Layer 1" xmlns="http://www.w3.org/2000/svg" viewBox="0 0 512 512"><path d="M340.728,414.558l-10.894-12.331a30.856,30.856,0,0,1,2.7-43.552h0l69-60.953a21.209,21.209,0,0,0,1.853-29.938l-16.4-18.566a21.21,21.21,0,0,0-29.938-1.854l-17.082,15.09" style="fill:none;stroke:#000;stroke-linejoin:round;stroke-width:10px"/><rect x="174.413" y="296.491" width="189.285" height="57.301" rx="4.761" transform="translate(685.962 390.686) rotate(138.543)" style="fill:none;stroke:#000;stroke-linecap:round;stroke-linejoin:round;stroke-width:10px"/><path d="M369.477,403.12h0a23.69,23.69,0,0,1,23.69,23.69v64.274a0,0,0,0,1,0,0H345.787a0,0,0,0,1,0,0V426.81A23.69,23.69,0,0,1,369.477,403.12Z" transform="translate(942.391 537.565) rotate(138.543)" style="fill:none;stroke:#000;stroke-linecap:round;stroke-linejoin:round;stroke-width:10px"/><line x1="205.197" y1="343.325" x2="222.51" y2="403.769" style="fill:none;stroke:#000;stroke-linecap:round;stroke-linejoin:round;stroke-width:10px"/><line x1="225.74" y1="325.177" x2="243.217" y2="386.195" style="fill:none;stroke:#000;stroke-linecap:round;stroke-linejoin:round;stroke-width:10px"/><line x1="246.284" y1="307.029" x2="263.761" y2="368.047" style="fill:none;stroke:#000;stroke-linecap:round;stroke-linejoin:round;stroke-width:10px"/><line x1="266.827" y1="288.881" x2="284.304" y2="349.899" style="fill:none;stroke:#000;stroke-linecap:round;stroke-linejoin:round;stroke-width:10px"/><line x1="287.37" y1="270.733" x2="304.847" y2="331.751" style="fill:none;stroke:#000;stroke-linecap:round;stroke-linejoin:round;stroke-width:10px"/><line x1="307.913" y1="252.585" x2="325.39" y2="313.603" style="fill:none;stroke:#000;stroke-linecap:round;stroke-linejoin:round;stroke-width:10px"/><line x1="336.416" y1="258.442" x2="346.799" y2="294.691" style="fill:none;stroke:#000;stroke-linecap:round;stroke-linejoin:round;stroke-width:10px"/><path d="M303.862,120.691a169.343,169.343,0,0,0-.59,104.739L163.722,347.221A278.648,278.648,0,0,1,145.855,26Z" style="fill:none;stroke:#000;stroke-linecap:round;stroke-linejoin:round;stroke-width:10px"/><line x1="303.272" y1="225.43" x2="163.722" y2="347.221" style="fill:none;stroke:#000;stroke-linecap:round;stroke-linejoin:round;stroke-width:10px"/><circle cx="213.853" cy="197.599" r="3.022" style="fill:none;stroke:#000;stroke-linecap:round;stroke-linejoin:round;stroke-width:10px"/><circle cx="168.758" cy="258.442" r="5.036" style="fill:none;stroke:#000;stroke-linecap:round;stroke-linejoin:round;stroke-width:10px"/><circle cx="240.426" cy="128.154" r="2.014" style="fill:none;stroke:#000;stroke-linecap:round;stroke-linejoin:round;stroke-width:10px"/><circle cx="163.722" cy="136.457" r="1.007" style="fill:none;stroke:#000;stroke-linecap:round;stroke-linejoin:round;stroke-width:10px"/><path d="M184.753,128.154,181.266,120a15.919,15.919,0,0,0-8.38-8.38l-8.157-3.487,8.157-3.488a15.919,15.919,0,0,0,8.38-8.38l3.487-8.157,3.488,8.157a15.921,15.921,0,0,0,8.379,8.38l8.158,3.488-8.158,3.487a15.921,15.921,0,0,0-8.379,8.38Z" style="fill:none;stroke:#000;stroke-linejoin:round;stroke-width:10px"/><line x1="347.784" y1="431.838" x2="361.268" y2="447.102" style="fill:none;stroke:#000;stroke-linecap:round;stroke-linejoin:round;stroke-width:10px"/><path d="M263.077,368.731l27.032,30.235a8.594,8.594,0,0,1-.751,12.13h0a8.594,8.594,0,0,1-12.13-.751l-17.361-19.652a8.593,8.593,0,0,0-12.13-.751h0a8.594,8.594,0,0,0-.751,12.13l6.247,7.071a8.594,8.594,0,0,1-.751,12.13h0a8.6,8.6,0,0,1-12.131-.751l-16.3-17.2" style="fill:none;stroke:#000;stroke-linejoin:round;stroke-width:10px"/><circle cx="262.969" cy="430.981" r="1.536" style="fill:none;stroke:#000;stroke-linejoin:round;stroke-width:10px"/><circle cx="301.72" cy="420.33" r="1.536" style="fill:none;stroke:#000;stroke-linejoin:round;stroke-width:10px"/></svg>