<svg id="Layer_1" data-name="Layer 1" xmlns="http://www.w3.org/2000/svg" viewBox="0 0 512 512"><path d="M271.811,20.752l17.568,11.6a28.735,28.735,0,0,0,17.4,4.722L328.024,35.9a28.745,28.745,0,0,1,27.243,15.768l9.512,18.858a28.792,28.792,0,0,0,12.7,12.718l18.83,9.527a28.8,28.8,0,0,1,15.761,27.281L410.9,141.331a28.839,28.839,0,0,0,4.705,17.433l11.583,17.6a28.834,28.834,0,0,1,0,31.7l-11.583,17.592a28.839,28.839,0,0,0-4.705,17.433l1.171,21.279a28.8,28.8,0,0,1-15.746,27.283l-18.83,9.525a28.792,28.792,0,0,0-12.7,12.718l-9.512,18.86a28.745,28.745,0,0,1-27.243,15.768l-21.246-1.173a28.735,28.735,0,0,0-17.4,4.722l-17.568,11.6a28.71,28.71,0,0,1-31.652,0l-17.568-11.6a28.732,28.732,0,0,0-17.4-4.722l-21.247,1.173a28.745,28.745,0,0,1-27.243-15.768l-9.512-18.86a28.792,28.792,0,0,0-12.7-12.718l-18.83-9.525a28.8,28.8,0,0,1-15.746-27.283l1.171-21.279a28.839,28.839,0,0,0-4.7-17.433L84.812,208.06a28.834,28.834,0,0,1,0-31.7L96.4,158.764a28.839,28.839,0,0,0,4.7-17.433l-1.171-21.276a28.8,28.8,0,0,1,15.746-27.283l18.83-9.527a28.792,28.792,0,0,0,12.7-12.718l9.512-18.858A28.745,28.745,0,0,1,183.961,35.9l21.247,1.171a28.733,28.733,0,0,0,17.4-4.723l17.568-11.6A28.712,28.712,0,0,1,271.811,20.752Z" style="fill:none;stroke:#000;stroke-linejoin:round;stroke-width:10px"/><ellipse cx="256" cy="192.202" rx="121.5" ry="121.678" style="fill:none;stroke:#000;stroke-linejoin:round;stroke-width:10px"/><polyline points="256 392.282 190.842 496 165.64 432.188 97.214 437.181 159.787 337.578" style="fill:none;stroke:#000;stroke-linejoin:round;stroke-width:10px"/><polyline points="236.981 362.008 321.158 496 346.36 432.188 414.786 437.181 352.211 337.576" style="fill:none;stroke:#000;stroke-linejoin:round;stroke-width:10px"/><path d="M241.67,98.215q-2.47.369-4.9.861" style="fill:none;stroke:#000;stroke-linecap:round;stroke-linejoin:round;stroke-width:10px"/><path d="M218.305,104.81a96.37,96.37,0,0,0-58.648,88.69" style="fill:none;stroke:#000;stroke-linecap:round;stroke-linejoin:round;stroke-width:10px"/><path d="M266.173,218.607v-2.66c0-11.2-6.861-15.259-17.08-15.259-3.5,0-4.76-2.94-4.76-5.881,0-3.079,1.26-6.019,4.76-6.019,8.54,0,14.559-2.661,14.559-15.4,0-10.22-4.9-14.42-14-14.42-11.34,0-14.559,5.741-14.559,11.48,0,3.64-1.68,6.02-7,6.02-6.58,0-7.7-1.54-7.7-6.86,0-9.1,6.3-23.659,29.4-23.659,16.38,0,28.14,6.44,28.14,24.92,0,11.619-4.48,20.159-11.2,23.38,8.261,3.219,14.281,9.8,14.281,21.7v2.66c0,22.26-14.281,30.52-31.92,30.52-21.84,0-30.94-13.58-30.94-24.64,0-4.9,1.82-6.3,6.86-6.3,6.16,0,7.7,1.82,7.7,5.6,0,6.16,5.18,12.18,16.519,12.18C260.713,235.967,266.173,230.787,266.173,218.607Z"/></svg>