<svg id="Layer_1" data-name="Layer 1" xmlns="http://www.w3.org/2000/svg" viewBox="0 0 512 512"><path d="M271.811,20.752l17.568,11.6a28.735,28.735,0,0,0,17.4,4.722L328.024,35.9a28.745,28.745,0,0,1,27.243,15.768l9.512,18.858a28.792,28.792,0,0,0,12.7,12.718l18.83,9.527a28.8,28.8,0,0,1,15.761,27.281L410.9,141.331a28.839,28.839,0,0,0,4.705,17.433l11.583,17.6a28.834,28.834,0,0,1,0,31.7l-11.583,17.592a28.839,28.839,0,0,0-4.705,17.433l1.171,21.279a28.8,28.8,0,0,1-15.746,27.283l-18.83,9.525a28.792,28.792,0,0,0-12.7,12.718l-9.512,18.86a28.745,28.745,0,0,1-27.243,15.768l-21.246-1.173a28.735,28.735,0,0,0-17.4,4.722l-17.568,11.6a28.71,28.71,0,0,1-31.652,0l-17.568-11.6a28.732,28.732,0,0,0-17.4-4.722l-21.247,1.173a28.745,28.745,0,0,1-27.243-15.768l-9.512-18.86a28.792,28.792,0,0,0-12.7-12.718l-18.83-9.525a28.8,28.8,0,0,1-15.746-27.283l1.171-21.279a28.839,28.839,0,0,0-4.7-17.433L84.812,208.06a28.834,28.834,0,0,1,0-31.7L96.4,158.764a28.839,28.839,0,0,0,4.7-17.433l-1.171-21.276a28.8,28.8,0,0,1,15.746-27.283l18.83-9.527a28.792,28.792,0,0,0,12.7-12.718l9.512-18.858A28.745,28.745,0,0,1,183.961,35.9l21.247,1.171a28.733,28.733,0,0,0,17.4-4.723l17.568-11.6A28.712,28.712,0,0,1,271.811,20.752Z" style="fill:none;stroke:#000;stroke-linejoin:round;stroke-width:10px"/><ellipse cx="256" cy="192.202" rx="121.5" ry="121.678" style="fill:none;stroke:#000;stroke-linejoin:round;stroke-width:10px"/><polyline points="256 392.282 190.842 496 165.64 432.188 97.214 437.181 159.787 337.578" style="fill:none;stroke:#000;stroke-linejoin:round;stroke-width:10px"/><polyline points="236.981 362.008 321.158 496 346.36 432.188 414.786 437.181 352.211 337.576" style="fill:none;stroke:#000;stroke-linejoin:round;stroke-width:10px"/><path d="M241.67,98.215q-2.47.369-4.9.861" style="fill:none;stroke:#000;stroke-linecap:round;stroke-linejoin:round;stroke-width:10px"/><path d="M218.305,104.81a96.37,96.37,0,0,0-58.648,88.69" style="fill:none;stroke:#000;stroke-linecap:round;stroke-linejoin:round;stroke-width:10px"/><path d="M250.071,186.268c17.781,0,31.5,7.839,31.5,29.4v2.66c0,22.4-14,30.8-31.359,30.8-20.3,0-31.5-11.76-31.5-24.78,0-5.32,2.8-6.86,7.28-6.86,6.159,0,7.56,2.52,7.56,5.88,0,7.98,7.28,12.6,16.38,12.6,10.5,0,16.8-5.6,16.8-17.64v-2.66c0-11.9-6.3-17.64-16.66-17.64h-20.3c-4.9,0-6.3-2.24-6.3-5.74a26.994,26.994,0,0,1,.28-3.36l3.22-38.079c.28-3.08,1.259-4.9,3.36-4.9h41.579c3.08,0,4.62,3.36,4.62,6.579,0,3.361-1.54,6.58-4.62,6.58h-32.34l-1.96,27.161Z"/></svg>