<svg id="Layer_1" data-name="Layer 1" xmlns="http://www.w3.org/2000/svg" viewBox="0 0 512 512"><path d="M90.067,432.9h0A164.219,164.219,0,0,1,71.788,222.419L206.187,31l134.4,191.419A164.217,164.217,0,0,1,322.306,432.9h0A164.218,164.218,0,0,1,90.067,432.9Z" style="fill:none;stroke:#000;stroke-linejoin:round;stroke-width:10px"/><line x1="290.192" y1="86.715" x2="344.932" y2="86.715" style="fill:none;stroke:#000;stroke-linecap:round;stroke-linejoin:round;stroke-width:10px"/><line x1="316.605" y1="124.334" x2="371.345" y2="124.334" style="fill:none;stroke:#000;stroke-linecap:round;stroke-linejoin:round;stroke-width:10px"/><line x1="343.017" y1="161.953" x2="397.757" y2="161.953" style="fill:none;stroke:#000;stroke-linecap:round;stroke-linejoin:round;stroke-width:10px"/><line x1="369.43" y1="199.572" x2="424.17" y2="199.572" style="fill:none;stroke:#000;stroke-linecap:round;stroke-linejoin:round;stroke-width:10px"/><line x1="394.713" y1="237.191" x2="449.454" y2="237.191" style="fill:none;stroke:#000;stroke-linecap:round;stroke-linejoin:round;stroke-width:10px"/><line x1="293.108" y1="49.096" x2="318.519" y2="49.096" style="fill:none;stroke:#000;stroke-linecap:round;stroke-linejoin:round;stroke-width:10px"/><line x1="409.857" y1="274.809" x2="464.597" y2="274.809" style="fill:none;stroke:#000;stroke-linecap:round;stroke-linejoin:round;stroke-width:10px"/><line x1="404.282" y1="312.428" x2="470.033" y2="312.428" style="fill:none;stroke:#000;stroke-linecap:round;stroke-linejoin:round;stroke-width:10px"/><line x1="400.933" y1="350.047" x2="466.626" y2="350.047" style="fill:none;stroke:#000;stroke-linecap:round;stroke-linejoin:round;stroke-width:10px"/><line x1="388.272" y1="387.666" x2="453.96" y2="387.666" style="fill:none;stroke:#000;stroke-linecap:round;stroke-linejoin:round;stroke-width:10px"/><line x1="374.336" y1="425.285" x2="429.077" y2="425.285" style="fill:none;stroke:#000;stroke-linecap:round;stroke-linejoin:round;stroke-width:10px"/><line x1="326.083" y1="462.904" x2="381.235" y2="462.904" style="fill:none;stroke:#000;stroke-linecap:round;stroke-linejoin:round;stroke-width:10px"/><path d="M79.685,319.808a146.557,146.557,0,0,1-.462-17.8" style="fill:none;stroke:#000;stroke-linecap:round;stroke-linejoin:round;stroke-width:10px"/><path d="M121.966,410.557h0A145.8,145.8,0,0,1,83.98,344.509" style="fill:none;stroke:#000;stroke-linecap:round;stroke-linejoin:round;stroke-width:10px"/></svg>