<svg id="Layer_1" data-name="Layer 1" xmlns="http://www.w3.org/2000/svg" viewBox="0 0 512 512"><polygon points="86.374 282.466 86.374 383.299 173.697 433.716 261.021 383.299 261.021 282.466 173.697 232.05 86.374 282.466" style="fill:none;stroke:#000;stroke-linejoin:round;stroke-width:10px"/><polyline points="261.021 383.299 348.345 433.716 427.285 388.139 427.285 277.626 348.345 232.05 261.021 282.466" style="fill:none;stroke:#000;stroke-linejoin:round;stroke-width:10px"/><polyline points="348.345 232.05 348.345 130.599 261.021 80.183 173.697 130.599 173.697 232.05" style="fill:none;stroke:#000;stroke-linejoin:round;stroke-width:10px"/><line x1="348.345" y1="462.603" x2="348.345" y2="433.716" style="fill:none;stroke:#000;stroke-linecap:round;stroke-linejoin:round;stroke-width:10px"/><line x1="173.697" y1="433.716" x2="173.697" y2="462.603" style="fill:none;stroke:#000;stroke-linecap:round;stroke-linejoin:round;stroke-width:10px"/><line x1="56" y1="401.223" x2="86.374" y2="383.299" style="fill:none;stroke:#000;stroke-linecap:round;stroke-linejoin:round;stroke-width:10px"/><line x1="56" y1="267.074" x2="86.374" y2="282.466" style="fill:none;stroke:#000;stroke-linecap:round;stroke-linejoin:round;stroke-width:10px"/><line x1="173.697" y1="130.599" x2="148.386" y2="115.206" style="fill:none;stroke:#000;stroke-linecap:round;stroke-linejoin:round;stroke-width:10px"/><line x1="261.021" y1="49.397" x2="261.021" y2="80.183" style="fill:none;stroke:#000;stroke-linecap:round;stroke-linejoin:round;stroke-width:10px"/><line x1="378.718" y1="115.206" x2="348.345" y2="130.599" style="fill:none;stroke:#000;stroke-linecap:round;stroke-linejoin:round;stroke-width:10px"/><line x1="427.285" y1="277.626" x2="456" y2="259.104" style="fill:none;stroke:#000;stroke-linecap:round;stroke-linejoin:round;stroke-width:10px"/><line x1="427.285" y1="388.139" x2="456" y2="401.223" style="fill:none;stroke:#000;stroke-linecap:round;stroke-linejoin:round;stroke-width:10px"/><line x1="260.958" y1="111.314" x2="203.328" y2="144.587" style="fill:none;stroke:#000;stroke-linecap:round;stroke-linejoin:round;stroke-width:10px"/><line x1="172.134" y1="264.563" x2="114.504" y2="297.836" style="fill:none;stroke:#000;stroke-linecap:round;stroke-linejoin:round;stroke-width:10px"/><line x1="349.611" y1="264.563" x2="291.981" y2="297.836" style="fill:none;stroke:#000;stroke-linecap:round;stroke-linejoin:round;stroke-width:10px"/></svg>