<svg id="Layer_1" data-name="Layer 1" xmlns="http://www.w3.org/2000/svg" viewBox="0 0 512 512"><path d="M344.812,390.541l66.1-23.083a45.413,45.413,0,0,1,51.866,16.392h0L324.592,442.161a88.138,88.138,0,0,1-68.376.066l-58.624-26.313a52.57,52.57,0,0,0-39.849-1.313l-72.8,27.072-35.716-85.2,79.393-25.342a127.653,127.653,0,0,0,22.392-9.587h0a82.823,82.823,0,0,1,51.738-9.268h0a82.829,82.829,0,0,1,36.611,14.9l6.321,4.585a49.24,49.24,0,0,0,18.847,8.338l51.259,10.69A36.718,36.718,0,0,1,344.3,393.926h0l-50.784-12.1a86.707,86.707,0,0,0-30.855-1.689h0" style="fill:none;stroke:#000;stroke-linecap:round;stroke-linejoin:round;stroke-width:10px"/><line x1="419.977" y1="426.033" x2="355.779" y2="453.123" style="fill:none;stroke:#000;stroke-linecap:round;stroke-linejoin:round;stroke-width:10px"/><line x1="442.237" y1="416.64" x2="433.758" y2="420.217" style="fill:none;stroke:#000;stroke-linecap:round;stroke-linejoin:round;stroke-width:10px"/><path d="M338.989,366.585,380.673,352.1a29,29,0,0,1,32.52,9.734l3.145,4.1" style="fill:none;stroke:#000;stroke-linecap:round;stroke-linejoin:round;stroke-width:10px"/><path d="M305.765,348.694l28.551-9.656a38.767,38.767,0,0,1,39.465,8.947l4.859,4.731" style="fill:none;stroke:#000;stroke-linecap:round;stroke-linejoin:round;stroke-width:10px"/><path d="M208.194,247.773l.384-.666s44.191-9.067,68.993,5.252c13.426,7.752,16.346,26.117,8.594,39.543h0l-.384.666h0c-7.752,13.426-25.116,20.08-38.543,12.328C222.437,290.577,208.194,247.773,208.194,247.773Z" style="fill:none;stroke:#000;stroke-linecap:round;stroke-linejoin:round;stroke-width:10px"/><path d="M304.937,321.433s-15.674-38.985-60.91-52.552" style="fill:none;stroke:#000;stroke-linecap:round;stroke-linejoin:round;stroke-width:10px"/><path d="M304.937,155.473v165.96s15.674-38.985,60.911-52.552" style="fill:none;stroke:#000;stroke-linecap:round;stroke-linejoin:round;stroke-width:10px"/><path d="M306.461,58.877h-1.524s-59.386,66.9-59.386,123.689c0,30.743,28.643,53.967,59.386,53.967h1.525c30.742,0,59.386-23.224,59.386-53.967C365.848,125.777,306.461,58.877,306.461,58.877Z" style="fill:none;stroke:#000;stroke-linecap:round;stroke-linejoin:round;stroke-width:10px"/><path d="M403.336,247.773l-.385-.666s-44.191-9.067-68.992,5.252c-13.426,7.752-16.346,26.117-8.6,39.543h0l.384.666h0c7.751,13.426,25.116,20.08,38.542,12.328C389.093,290.577,403.336,247.773,403.336,247.773Z" style="fill:none;stroke:#000;stroke-linecap:round;stroke-linejoin:round;stroke-width:10px"/></svg>