<svg id="Layer_1" data-name="Layer 1" xmlns="http://www.w3.org/2000/svg" viewBox="0 0 512 512"><path d="M437.126,217.77a197.536,197.536,0,0,1,14.288,74.01c0,109.305-88.516,197.914-197.707,197.914S56,401.085,56,291.78,144.517,93.867,253.707,93.867a197.31,197.31,0,0,1,62.71,10.163" style="fill:none;stroke:#000;stroke-linecap:round;stroke-linejoin:round;stroke-width:10px"/><path d="M411.255,238.546a166.37,166.37,0,0,1,8.688,53.234c0,91.906-74.427,166.409-166.236,166.409S87.472,383.686,87.472,291.78,161.9,125.371,253.707,125.371a166.2,166.2,0,0,1,45.357,6.27" style="fill:none;stroke:#000;stroke-linecap:round;stroke-linejoin:round;stroke-width:10px"/><ellipse cx="253.707" cy="291.78" rx="18.56" ry="18.579" style="fill:none;stroke:#000;stroke-linecap:round;stroke-linejoin:round;stroke-width:10px"/><line x1="253.707" y1="435.792" x2="253.707" y2="458.189" style="fill:none;stroke:#000;stroke-linecap:round;stroke-linejoin:round;stroke-width:10px"/><line x1="109.695" y1="291.78" x2="87.298" y2="291.78" style="fill:none;stroke:#000;stroke-linecap:round;stroke-linejoin:round;stroke-width:10px"/><path d="M215.968,177.948q-2.3.343-4.571.8" style="fill:none;stroke:#000;stroke-linecap:round;stroke-linejoin:round;stroke-width:10px"/><path d="M194.173,184.1a90.039,90.039,0,0,0-52.68,63.661" style="fill:none;stroke:#000;stroke-linecap:round;stroke-linejoin:round;stroke-width:10px"/><rect x="216.256" y="31.818" width="74.903" height="24.968" rx="12.484" style="fill:none;stroke:#000;stroke-linejoin:round;stroke-width:10px"/><line x1="255.327" y1="56.785" x2="255.327" y2="93.867" style="fill:none;stroke:#000;stroke-linejoin:round;stroke-width:10px"/><line x1="253.707" y1="273.201" x2="253.707" y2="125.334" style="fill:none;stroke:#000;stroke-linecap:round;stroke-linejoin:round;stroke-width:10px"/><line x1="267.791" y1="303.874" x2="383.582" y2="395.643" style="fill:none;stroke:#000;stroke-linecap:round;stroke-linejoin:round;stroke-width:10px"/><line x1="253.707" y1="150.963" x2="292.867" y2="150.963" style="fill:none;stroke:#000;stroke-linejoin:round;stroke-width:10px"/><line x1="253.707" y1="186.562" x2="294.375" y2="186.562" style="fill:none;stroke:#000;stroke-linejoin:round;stroke-width:10px"/><line x1="253.707" y1="222.161" x2="314.382" y2="222.161" style="fill:none;stroke:#000;stroke-linejoin:round;stroke-width:10px"/><line x1="253.707" y1="257.761" x2="416.461" y2="257.761" style="fill:none;stroke:#000;stroke-linejoin:round;stroke-width:10px"/><line x1="272.267" y1="293.36" x2="419.943" y2="293.36" style="fill:none;stroke:#000;stroke-linejoin:round;stroke-width:10px"/><line x1="344.36" y1="364.558" x2="403.236" y2="364.558" style="fill:none;stroke:#000;stroke-linejoin:round;stroke-width:10px"/><line x1="299.442" y1="328.959" x2="415.773" y2="328.959" style="fill:none;stroke:#000;stroke-linejoin:round;stroke-width:10px"/><path d="M315.673,223.482h0a82.186,82.186,0,0,1-9.15-105.359L373.8,22.306l67.275,95.817a82.2,82.2,0,0,1-9.15,105.359h0A82.2,82.2,0,0,1,315.673,223.482Z" style="fill:none;stroke:#000;stroke-linejoin:round;stroke-width:10px"/><path d="M327.251,153.887q.606-2.511,1.447-4.976" style="fill:none;stroke:#000;stroke-linecap:round;stroke-linejoin:round;stroke-width:10px"/><path d="M342.148,206.818a56.135,56.135,0,0,1-16.022-32.727" style="fill:none;stroke:#000;stroke-linecap:round;stroke-linejoin:round;stroke-width:10px"/></svg>