<svg id="Layer_1" data-name="Layer 1" xmlns="http://www.w3.org/2000/svg" viewBox="0 0 512 512"><path d="M401.4,182.916l-17.578-53.874-35.636,1.745a61.564,61.564,0,0,0-56.207,44.652h0A261.545,261.545,0,0,1,112.15,355.417l-2.058.587c-34.145,9.739-44.606,53.006-18.687,77.272l1.537,1.439a104.339,104.339,0,0,0,99.938,24.177l32.342-9.225a261.544,261.544,0,0,0,175.06-164.941h0A158.791,158.791,0,0,0,401.4,182.916Z" style="fill:none;stroke:#000;stroke-linejoin:round;stroke-width:10px"/><path d="M190.7,286.137q-3.1,2.488-6.3,4.859" style="fill:none;stroke:#000;stroke-linecap:round;stroke-linejoin:round;stroke-width:10px"/><path d="M243.614,221.714a203.307,203.307,0,0,1-34.494,47.668" style="fill:none;stroke:#000;stroke-linecap:round;stroke-linejoin:round;stroke-width:10px"/><path d="M80.938,418.779l50.474-8.014A294.256,294.256,0,0,0,373.564,179.086L400.137,49.1" style="fill:none;stroke:#000;stroke-linecap:round;stroke-linejoin:round;stroke-width:10px"/><path d="M386.192,117.318l5.181,2.827a37.009,37.009,0,0,0,43.707-6.129h0" style="fill:none;stroke:#000;stroke-linecap:round;stroke-linejoin:round;stroke-width:10px"/><path d="M386.3,116.8l-2.447-1.271a41.9,41.9,0,0,1-22.479-40.32h0" style="fill:none;stroke:#000;stroke-linecap:round;stroke-linejoin:round;stroke-width:10px"/><path d="M385.145,122.439l-14.132-6.418a59.942,59.942,0,0,0-57.215,4.166h0" style="fill:none;stroke:#000;stroke-linecap:round;stroke-linejoin:round;stroke-width:10px"/><path d="M385.709,119.679l14.444,9.81a58.734,58.734,0,0,1,25.509,43.441" style="fill:none;stroke:#000;stroke-linecap:round;stroke-linejoin:round;stroke-width:10px"/><path d="M168.2,332.1l.373,1.062a77.541,77.541,0,0,1-11.178,72.273h0a156.745,156.745,0,0,1,62.538,39.358l4.977,5.121" style="fill:none;stroke:#000;stroke-linejoin:round;stroke-width:10px"/><polyline points="210.662 302.446 246.676 366.198 298.538 415.786" style="fill:none;stroke:#000;stroke-linejoin:round;stroke-width:10px"/><path d="M234.328,279.4h0a151.749,151.749,0,0,1,41.046,64.317l.263.81,16.413,10.26a94.407,94.407,0,0,1,34.986,39.026h0" style="fill:none;stroke:#000;stroke-linejoin:round;stroke-width:10px"/><polyline points="266.162 236.034 320.544 296.89 378.463 331.561" style="fill:none;stroke:#000;stroke-linejoin:round;stroke-width:10px"/><path d="M281.794,204.843h0a129.768,129.768,0,0,1,52.3,48.866l7.058,11.778h0a90.673,90.673,0,0,1,55.1,28.931l.053.058" style="fill:none;stroke:#000;stroke-linejoin:round;stroke-width:10px"/><circle cx="107.159" cy="196.178" r="13.769" style="fill:none;stroke:#000;stroke-linejoin:round;stroke-width:10px"/><path d="M154.168,182.409l-8.188-19.15a37.37,37.37,0,0,0-19.671-19.671l-19.15-8.187,19.15-8.188a37.37,37.37,0,0,0,19.671-19.671l8.188-19.15,8.187,19.15a37.374,37.374,0,0,0,19.671,19.671l19.151,8.188-19.151,8.187a37.374,37.374,0,0,0-19.671,19.671Z" style="fill:none;stroke:#000;stroke-linejoin:round;stroke-width:10px"/><path d="M184.4,249.43l-4.637-10.847a21.169,21.169,0,0,0-11.142-11.142L157.778,222.8l10.846-4.638a21.164,21.164,0,0,0,11.142-11.141l4.637-10.847,4.638,10.847a21.164,21.164,0,0,0,11.142,11.141l10.846,4.638-10.846,4.637a21.169,21.169,0,0,0-11.142,11.142Z" style="fill:none;stroke:#000;stroke-linejoin:round;stroke-width:10px"/></svg>