<svg id="Layer_1" data-name="Layer 1" xmlns="http://www.w3.org/2000/svg" viewBox="0 0 512 512"><rect x="204.731" y="122.214" width="103.964" height="199.405" rx="51.982" transform="translate(-40.399 57.987) rotate(-11.954)" style="fill:none;stroke:#000;stroke-linejoin:round;stroke-width:10px"/><line x1="310.199" y1="210.944" x2="362.792" y2="199.809" style="fill:none;stroke:#000;stroke-linecap:round;stroke-linejoin:round;stroke-width:10px"/><line x1="150.776" y1="244.698" x2="203.369" y2="233.563" style="fill:none;stroke:#000;stroke-linecap:round;stroke-linejoin:round;stroke-width:10px"/><line x1="302.369" y1="173.965" x2="354.963" y2="162.829" style="fill:none;stroke:#000;stroke-linecap:round;stroke-linejoin:round;stroke-width:10px"/><line x1="142.946" y1="207.719" x2="195.539" y2="196.583" style="fill:none;stroke:#000;stroke-linecap:round;stroke-linejoin:round;stroke-width:10px"/><line x1="316.462" y1="240.528" x2="369.056" y2="229.393" style="fill:none;stroke:#000;stroke-linecap:round;stroke-linejoin:round;stroke-width:10px"/><line x1="157.039" y1="274.282" x2="209.633" y2="263.147" style="fill:none;stroke:#000;stroke-linecap:round;stroke-linejoin:round;stroke-width:10px"/><line x1="291.9" y1="144.533" x2="340.247" y2="110.855" style="fill:none;stroke:#000;stroke-linecap:round;stroke-linejoin:round;stroke-width:10px"/><line x1="134.586" y1="154.399" x2="192.434" y2="165.592" style="fill:none;stroke:#000;stroke-linecap:round;stroke-linejoin:round;stroke-width:10px"/><line x1="319.566" y1="271.51" x2="377.414" y2="282.704" style="fill:none;stroke:#000;stroke-linecap:round;stroke-linejoin:round;stroke-width:10px"/><line x1="171.005" y1="326.406" x2="219.352" y2="292.728" style="fill:none;stroke:#000;stroke-linecap:round;stroke-linejoin:round;stroke-width:10px"/><path d="M310.348,443.089c-3.791-20.532-23.32-16.927-27.111-37.459s15.738-24.14,11.947-44.675-23.321-16.93-27.112-37.465" style="fill:none;stroke:#000;stroke-linecap:round;stroke-linejoin:round;stroke-width:10px"/><line x1="235.905" y1="123.641" x2="224.596" y2="70.226" style="fill:none;stroke:#000;stroke-linecap:round;stroke-linejoin:round;stroke-width:10px"/><line x1="343.714" y1="352.35" x2="304.686" y2="308.26" style="fill:none;stroke:#000;stroke-linecap:round;stroke-linejoin:round;stroke-width:10px"/><line x1="265.893" y1="125.035" x2="283.703" y2="68.911" style="fill:none;stroke:#000;stroke-linecap:round;stroke-linejoin:round;stroke-width:10px"/><line x1="170.028" y1="92.979" x2="209.055" y2="137.069" style="fill:none;stroke:#000;stroke-linecap:round;stroke-linejoin:round;stroke-width:10px"/><line x1="247.849" y1="320.294" x2="230.039" y2="376.418" style="fill:none;stroke:#000;stroke-linecap:round;stroke-linejoin:round;stroke-width:10px"/><circle cx="234.614" cy="167.364" r="10.32" style="fill:none;stroke:#000;stroke-linecap:round;stroke-linejoin:round;stroke-width:10px"/><circle cx="255.577" cy="266.373" r="18.729" style="fill:none;stroke:#000;stroke-linecap:round;stroke-linejoin:round;stroke-width:10px"/><circle cx="279.898" cy="209.638" r="9.938" style="fill:none;stroke:#000;stroke-linecap:round;stroke-linejoin:round;stroke-width:10px"/><circle cx="256" cy="256" r="245" style="fill:none;stroke:#000;stroke-linecap:round;stroke-linejoin:round;stroke-width:10px"/><line x1="82.759" y1="82.759" x2="429.241" y2="429.241" style="fill:none;stroke:#000;stroke-linecap:round;stroke-linejoin:round;stroke-width:10px"/><path d="M80.048,366.634a208.275,208.275,0,0,0,118.005,89" style="fill:none;stroke:#000;stroke-linecap:round;stroke-linejoin:round;stroke-width:10px"/><path d="M64.692,337.31q1.469,3.45,3.057,6.835" style="fill:none;stroke:#000;stroke-linecap:round;stroke-linejoin:round;stroke-width:10px"/></svg>