<svg id="Layer_1" data-name="Layer 1" xmlns="http://www.w3.org/2000/svg" viewBox="0 0 512 512"><path d="M412.855,200.531h0a9.837,9.837,0,0,0-12.553-5.994l-17.411,6.158a11.928,11.928,0,0,1-14.366-5.459,127.663,127.663,0,0,0-40.55-43.656,11.848,11.848,0,0,1-4.068-14.966l8.421-17.634a9.837,9.837,0,0,0-4.638-13.115h0a9.835,9.835,0,0,0-13.114,4.638l-8.641,18.1a11.844,11.844,0,0,1-13.918,6.328,127.566,127.566,0,0,0-58.633-2.85,11.941,11.941,0,0,1-13.5-7.7l-6.8-19.235a9.835,9.835,0,0,0-12.552-5.994h0a9.837,9.837,0,0,0-5.994,12.553l6.8,19.234a11.94,11.94,0,0,1-5.655,14.476,127.551,127.551,0,0,0-43.807,39.076,11.844,11.844,0,0,1-14.8,3.829l-18.1-8.641a9.836,9.836,0,0,0-13.114,4.638h0a9.836,9.836,0,0,0,4.638,13.114l17.634,8.421a11.848,11.848,0,0,1,6.246,14.2,127.651,127.651,0,0,0-4.091,59.442,11.927,11.927,0,0,1-7.74,13.276l-17.412,6.158a9.835,9.835,0,0,0-5.994,12.552h0a9.837,9.837,0,0,0,12.553,5.994l16.727-5.916a11.874,11.874,0,0,1,14.5,5.721,127.544,127.544,0,0,0,40.054,45.769,11.822,11.822,0,0,1,3.954,14.771l-7.264,15.212a9.836,9.836,0,0,0,4.638,13.115h0a9.836,9.836,0,0,0,13.114-4.638l7-14.658a11.839,11.839,0,0,1,14.174-6.257,127.645,127.645,0,0,0,61.727,3.7,11.859,11.859,0,0,1,13.342,7.727l5.251,14.847a9.835,9.835,0,0,0,12.552,5.994h0a9.837,9.837,0,0,0,5.994-12.553l-5.251-14.847a11.861,11.861,0,0,1,5.519-14.4,127.631,127.631,0,0,0,45.675-41.685,11.839,11.839,0,0,1,14.956-4.044l14.658,7a9.837,9.837,0,0,0,13.115-4.638h0a9.836,9.836,0,0,0-4.638-13.114l-15.212-7.264a11.822,11.822,0,0,1-6.211-13.973,127.547,127.547,0,0,0,2.376-60.774A11.875,11.875,0,0,1,390.134,219l16.727-5.915A9.835,9.835,0,0,0,412.855,200.531Z" style="fill:none;stroke:#000;stroke-linejoin:round;stroke-width:10px"/><circle cx="175.972" cy="224.222" r="17.565" style="fill:none;stroke:#000;stroke-linejoin:round;stroke-width:10px"/><circle cx="179.35" cy="317.014" r="10.187" style="fill:none;stroke:#000;stroke-linejoin:round;stroke-width:10px"/><circle cx="298.823" cy="338.108" r="23.537" style="fill:none;stroke:#000;stroke-linejoin:round;stroke-width:10px"/><circle cx="338.451" cy="232.059" r="20.375" style="fill:none;stroke:#000;stroke-linejoin:round;stroke-width:10px"/><circle cx="256.465" cy="220.437" r="15.106" style="fill:none;stroke:#000;stroke-linejoin:round;stroke-width:10px"/><circle cx="279.614" cy="168.94" r="15.808" style="fill:none;stroke:#000;stroke-linejoin:round;stroke-width:10px"/><circle cx="236.015" cy="341.327" r="14.403" style="fill:none;stroke:#000;stroke-linejoin:round;stroke-width:10px"/><circle cx="341.949" cy="288.323" r="11.974" style="fill:none;stroke:#000;stroke-linejoin:round;stroke-width:10px"/><circle cx="224.835" cy="279.69" r="25.303" style="fill:none;stroke:#000;stroke-linejoin:round;stroke-width:10px"/><circle cx="288.956" cy="268.992" r="7.097" style="fill:none;stroke:#000;stroke-linejoin:round;stroke-width:10px"/><circle cx="256" cy="256" r="230" style="fill:none;stroke:#000;stroke-linecap:round;stroke-linejoin:round;stroke-width:10px"/><line x1="93.365" y1="93.365" x2="418.635" y2="418.635" style="fill:none;stroke:#000;stroke-linecap:round;stroke-linejoin:round;stroke-width:10px"/><path d="M90.82,359.86A195.523,195.523,0,0,0,201.6,443.408" style="fill:none;stroke:#000;stroke-linecap:round;stroke-linejoin:round;stroke-width:10px"/><path d="M76.405,332.332q1.379,3.238,2.869,6.417" style="fill:none;stroke:#000;stroke-linecap:round;stroke-linejoin:round;stroke-width:10px"/></svg>