<svg id="Layer_1" data-name="Layer 1" xmlns="http://www.w3.org/2000/svg" viewBox="0 0 512 512"><path d="M309.112,137.627l67.32-37.645c12.176-6.809,26.1,5.589,20.742,18.47l-30.667,73.736,56.416,55.867c9.823,9.727,2,26.4-11.758,25.07l-76.947-7.456L301.28,336.753c-5.927,12.789-24.713,10.709-27.7-3.067l-16.715-77.164L179.86,245.763c-13.646-1.907-17.4-19.855-5.665-27.073l67.157-41.3-13.8-78.535c-2.427-13.81,14.022-22.85,24.379-13.4Z" style="fill:none;stroke:#000;stroke-linecap:round;stroke-linejoin:round;stroke-width:12px"/><line x1="448.102" y1="47.253" x2="417.231" y2="78.123" style="fill:none;stroke:#000;stroke-linecap:round;stroke-linejoin:round;stroke-width:12px"/><line x1="192.146" y1="16" x2="213.975" y2="53.809" style="fill:none;stroke:#000;stroke-linecap:round;stroke-linejoin:round;stroke-width:12px"/><line x1="491.769" y1="311.579" x2="455.881" y2="286.719" style="fill:none;stroke:#000;stroke-linecap:round;stroke-linejoin:round;stroke-width:12px"/><line x1="283.671" y1="383.736" x2="278.994" y2="426.891" style="fill:none;stroke:#000;stroke-linecap:round;stroke-linejoin:round;stroke-width:12px"/><line x1="85.875" y1="244" x2="129.1" y2="240.026" style="fill:none;stroke:#000;stroke-linecap:round;stroke-linejoin:round;stroke-width:12px"/><path d="M262.435,284.242,56.983,489.694a21.528,21.528,0,0,1-29.028,1.3h0a21.529,21.529,0,0,1-1.418-31.744L229.262,256.522" style="fill:none;stroke:#000;stroke-linecap:round;stroke-linejoin:round;stroke-width:12px"/></svg>