<svg id="Layer_1" data-name="Layer 1" xmlns="http://www.w3.org/2000/svg" viewBox="0 0 512 512"><polyline points="246.459 188.943 362.942 188.943 432.143 302.653 263.892 496 95.641 302.653 164.842 188.943 263.892 188.943 263.892 496" style="fill:none;stroke:#000;stroke-linecap:round;stroke-linejoin:round;stroke-width:12px"/><polyline points="263.892 496 170.918 302.653 217.405 188.943" style="fill:none;stroke:#000;stroke-linecap:round;stroke-linejoin:round;stroke-width:12px"/><polyline points="263.892 496 356.866 302.653 310.379 188.943" style="fill:none;stroke:#000;stroke-linecap:round;stroke-linejoin:round;stroke-width:12px"/><line x1="95.641" y1="302.653" x2="432.143" y2="302.653" style="fill:none;stroke:#000;stroke-linecap:round;stroke-linejoin:round;stroke-width:12px"/><line x1="149.658" y1="261.457" x2="161.846" y2="237.249" style="fill:none;stroke:#000;stroke-linecap:round;stroke-linejoin:round;stroke-width:12px"/><line x1="169.795" y1="221.46" x2="172.091" y2="216.899" style="fill:none;stroke:#000;stroke-linecap:round;stroke-linejoin:round;stroke-width:12px"/><circle cx="95.641" cy="170.085" r="15.784" style="fill:none;stroke:#000;stroke-linejoin:round;stroke-width:10px"/><path d="M133.746,123.778l-9.385-21.953a42.845,42.845,0,0,0-22.551-22.55L79.857,69.889,101.81,60.5a42.838,42.838,0,0,0,22.551-22.55L133.746,16l9.386,21.953A42.838,42.838,0,0,0,165.683,60.5l21.953,9.386-21.953,9.386a42.845,42.845,0,0,0-22.551,22.55Z" style="fill:none;stroke:#000;stroke-linejoin:round;stroke-width:10px"/><path d="M201.441,164.533,196.124,152.1a24.264,24.264,0,0,0-12.772-12.773l-12.434-5.316,12.434-5.316a24.264,24.264,0,0,0,12.772-12.773l5.317-12.434,5.316,12.434a24.264,24.264,0,0,0,12.772,12.773l12.435,5.316-12.435,5.316A24.264,24.264,0,0,0,206.757,152.1Z" style="fill:none;stroke:#000;stroke-linejoin:round;stroke-width:10px"/></svg>