<svg id="Layer_1" data-name="Layer 1" xmlns="http://www.w3.org/2000/svg" viewBox="0 0 512 512"><rect x="164.881" y="258.501" width="237.499" height="237.499" rx="48.602" style="fill:none;stroke:#000;stroke-linecap:round;stroke-linejoin:round;stroke-width:10px"/><path d="M211.988,260.154V192.922a71.642,71.642,0,0,1,71.642-71.641h0a71.641,71.641,0,0,1,71.641,71.641v67.232" style="fill:none;stroke:#000;stroke-linejoin:round;stroke-width:10px"/><circle cx="283.63" cy="376.814" r="68.174" style="fill:none;stroke:#000;stroke-linejoin:round;stroke-width:10px"/><polyline points="359.019 322.965 287.821 394.163 251.952 358.294" style="fill:none;stroke:#000;stroke-linecap:round;stroke-linejoin:round;stroke-width:10px"/><path d="M180.828,158,170.6,134.084a46.682,46.682,0,0,0-24.571-24.57l-23.92-10.227,23.92-10.226A46.681,46.681,0,0,0,170.6,64.49l10.226-23.92,10.227,23.92a46.679,46.679,0,0,0,24.57,24.571l23.92,10.226-23.92,10.227a46.68,46.68,0,0,0-24.57,24.57Z" style="fill:none;stroke:#000;stroke-linejoin:round;stroke-width:10px"/><path d="M305.485,65.141l-4.279-10.009A19.529,19.529,0,0,0,290.924,44.85l-10.009-4.28,10.009-4.279a19.529,19.529,0,0,0,10.282-10.282L305.485,16l4.28,10.009a19.529,19.529,0,0,0,10.282,10.282l10.009,4.279-10.009,4.28a19.529,19.529,0,0,0-10.282,10.282Z" style="fill:none;stroke:#000;stroke-linejoin:round;stroke-width:10px"/><circle cx="122.111" cy="171.624" r="12.491" style="fill:none;stroke:#000;stroke-linejoin:round;stroke-width:10px"/><circle cx="267.606" cy="62.705" r="6.245" style="fill:none;stroke:#000;stroke-linejoin:round;stroke-width:10px"/><circle cx="169.187" cy="204.881" r="6.245" style="fill:none;stroke:#000;stroke-linejoin:round;stroke-width:10px"/><circle cx="134.602" cy="258.501" r="3.747" style="fill:none;stroke:#000;stroke-linejoin:round;stroke-width:10px"/></svg>