<svg id="Layer_1" data-name="Layer 1" xmlns="http://www.w3.org/2000/svg" viewBox="0 0 512 512"><path d="M258.008,231.366a97.173,97.173,0,1,1,86.583,141.268H92.8A55.314,55.314,0,0,1,37.486,317.32h0A55.314,55.314,0,0,1,92.8,262.006l.758-.531A107.922,107.922,0,0,1,196.366,120.983c44.669,0,85.622,30.1,101.993,68.809" style="fill:none;stroke:#000;stroke-linecap:round;stroke-linejoin:round;stroke-width:10px"/><line x1="296.196" y1="405.92" x2="366.133" y2="405.898" style="fill:none;stroke:#000;stroke-linecap:round;stroke-linejoin:round;stroke-width:10px"/><line x1="279.76" y1="405.963" x2="279.76" y2="405.937" style="fill:none;stroke:#000;stroke-linecap:round;stroke-linejoin:round;stroke-width:10px"/><line x1="260.831" y1="405.963" x2="104.385" y2="405.995" style="fill:none;stroke:#000;stroke-linecap:round;stroke-linejoin:round;stroke-width:10px"/><path d="M395.726,426.3a13.779,13.779,0,0,1-.935,14.727" style="fill:none;stroke:#000;stroke-linecap:round;stroke-linejoin:round;stroke-width:10px"/><path d="M409.65,442.583a26.973,26.973,0,0,1-52.351-9.268" style="fill:none;stroke:#000;stroke-linecap:round;stroke-linejoin:round;stroke-width:10px"/><path d="M384.4,406.483a26.973,26.973,0,0,1,24.319,15.585" style="fill:none;stroke:#000;stroke-linecap:round;stroke-linejoin:round;stroke-width:10px"/><path d="M124.724,297.551a13.78,13.78,0,0,1,8.836,25.683" style="fill:none;stroke:#000;stroke-linecap:round;stroke-linejoin:round;stroke-width:10px"/><path d="M100.931,301.5a26.973,26.973,0,0,1,52.351,9.268" style="fill:none;stroke:#000;stroke-linecap:round;stroke-linejoin:round;stroke-width:10px"/><line x1="320.029" y1="337.597" x2="319.731" y2="337.597" style="fill:none;stroke:#000;stroke-linecap:round;stroke-linejoin:round;stroke-width:10px"/><line x1="266.351" y1="337.597" x2="298.507" y2="337.597" style="fill:none;stroke:#000;stroke-linecap:round;stroke-linejoin:round;stroke-width:10px"/><path d="M101.859,322.012A26.973,26.973,0,0,0,126.178,337.6h118.3" style="fill:none;stroke:#000;stroke-linecap:round;stroke-linejoin:round;stroke-width:10px"/><line x1="206.345" y1="304.456" x2="171.48" y2="304.456" style="fill:none;stroke:#000;stroke-linecap:round;stroke-linejoin:round;stroke-width:10px"/><line x1="222.505" y1="304.456" x2="222.476" y2="304.456" style="fill:none;stroke:#000;stroke-linecap:round;stroke-linejoin:round;stroke-width:10px"/><path d="M367.348,284.9a13.781,13.781,0,0,0-.934-14.727" style="fill:none;stroke:#000;stroke-linecap:round;stroke-linejoin:round;stroke-width:10px"/><path d="M381.272,268.616a26.973,26.973,0,0,0-52.351,9.268" style="fill:none;stroke:#000;stroke-linecap:round;stroke-linejoin:round;stroke-width:10px"/><path d="M380.345,289.131a26.971,26.971,0,0,1-24.319,15.585h-118.3" style="fill:none;stroke:#000;stroke-linecap:round;stroke-linejoin:round;stroke-width:10px"/><path d="M306.1,461.883a13.779,13.779,0,0,1-.934,14.727" style="fill:none;stroke:#000;stroke-linecap:round;stroke-linejoin:round;stroke-width:10px"/><path d="M320.029,478.163a26.973,26.973,0,0,1-52.351-9.267" style="fill:none;stroke:#000;stroke-linecap:round;stroke-linejoin:round;stroke-width:10px"/><line x1="100.931" y1="442.064" x2="101.229" y2="442.064" style="fill:none;stroke:#000;stroke-linecap:round;stroke-linejoin:round;stroke-width:10px"/><line x1="154.609" y1="442.064" x2="122.453" y2="442.064" style="fill:none;stroke:#000;stroke-linecap:round;stroke-linejoin:round;stroke-width:10px"/><path d="M319.1,457.649a26.971,26.971,0,0,0-24.319-15.585h-118.3" style="fill:none;stroke:#000;stroke-linecap:round;stroke-linejoin:round;stroke-width:10px"/><path d="M244.467,131.466A24.176,24.176,0,0,0,242,100.946l-7.021-7.3,9.54,3.425c18.62,6.685,37.1-10.68,31.619-29.72L273.33,57.6l6.826,7.484c13.322,14.606,37.679,7.769,41.686-11.7L323.9,43.4l2.547,9.827c4.973,19.182,29.631,24.439,42.2,9l6.441-7.911-2.314,9.92a24.084,24.084,0,0,0,33.052,27.635l9.353-4.034-6.645,7.74c-12.971,15.108-3.431,38.446,16.328,39.942l10.124.767-9.455,3.787c-18.454,7.392-20.869,32.575-4.135,43.1l8.574,5.393-10.1-1.034a23.954,23.954,0,0,0-18.749,6.106" style="fill:none;stroke:#000;stroke-linejoin:round;stroke-width:10px"/><path d="M261.676,142.245a65.043,65.043,0,1,1,121.216,42.793" style="fill:none;stroke:#000;stroke-linecap:round;stroke-linejoin:round;stroke-width:10px"/><line x1="471.644" y1="133.112" x2="474.514" y2="132.855" style="fill:none;stroke:#000;stroke-linecap:round;stroke-linejoin:round;stroke-width:10px"/><line x1="435.2" y1="136.364" x2="452.038" y2="134.862" style="fill:none;stroke:#000;stroke-linecap:round;stroke-linejoin:round;stroke-width:10px"/><line x1="425.873" y1="79.81" x2="433.498" y2="74.19" style="fill:none;stroke:#000;stroke-linecap:round;stroke-linejoin:round;stroke-width:10px"/><line x1="322.732" y1="20.883" x2="322.503" y2="16" style="fill:none;stroke:#000;stroke-linecap:round;stroke-linejoin:round;stroke-width:10px"/><line x1="323.777" y1="43.202" x2="323.234" y2="31.609" style="fill:none;stroke:#000;stroke-linecap:round;stroke-linejoin:round;stroke-width:10px"/><line x1="265.381" y1="42.258" x2="262.864" y2="37.482" style="fill:none;stroke:#000;stroke-linecap:round;stroke-linejoin:round;stroke-width:10px"/><line x1="217.977" y1="83.664" x2="213.438" y2="80.742" style="fill:none;stroke:#000;stroke-linecap:round;stroke-linejoin:round;stroke-width:10px"/><line x1="273.517" y1="57.691" x2="270.239" y2="51.473" style="fill:none;stroke:#000;stroke-linecap:round;stroke-linejoin:round;stroke-width:10px"/><line x1="429.841" y1="188.397" x2="450.439" y2="195.022" style="fill:none;stroke:#000;stroke-linecap:round;stroke-linejoin:round;stroke-width:10px"/><line x1="375.175" y1="54.388" x2="386.313" y2="32.619" style="fill:none;stroke:#000;stroke-linecap:round;stroke-linejoin:round;stroke-width:10px"/><line x1="234.808" y1="93.848" x2="227.461" y2="89.118" style="fill:none;stroke:#000;stroke-linecap:round;stroke-linejoin:round;stroke-width:10px"/></svg>