<svg id="Layer_1" data-name="Layer 1" xmlns="http://www.w3.org/2000/svg" viewBox="0 0 512 512"><path d="M222.52,375.534V355.492A37.583,37.583,0,0,1,260.1,317.909H372.245a25.835,25.835,0,0,0,25.835-25.835V261.9a25.836,25.836,0,0,0-25.835-25.836H344.482" style="fill:none;stroke:#000;stroke-linejoin:round;stroke-width:10px"/><rect x="113.92" y="201.21" width="230.562" height="69.796" rx="5.799" transform="translate(458.401 472.215) rotate(-180)" style="fill:none;stroke:#000;stroke-linecap:round;stroke-linejoin:round;stroke-width:10px"/><rect x="193.664" y="374.854" width="57.711" height="137.146" rx="10.357" transform="translate(445.039 886.854) rotate(-180)" style="fill:none;stroke:#000;stroke-linecap:round;stroke-linejoin:round;stroke-width:10px"/><line x1="156.242" y1="201.21" x2="123.301" y2="270.349" style="fill:none;stroke:#000;stroke-linecap:round;stroke-linejoin:round;stroke-width:10px"/><line x1="189.63" y1="201.21" x2="156.377" y2="271.006" style="fill:none;stroke:#000;stroke-linecap:round;stroke-linejoin:round;stroke-width:10px"/><line x1="223.019" y1="201.21" x2="189.766" y2="271.006" style="fill:none;stroke:#000;stroke-linecap:round;stroke-linejoin:round;stroke-width:10px"/><line x1="256.408" y1="201.21" x2="223.155" y2="271.006" style="fill:none;stroke:#000;stroke-linecap:round;stroke-linejoin:round;stroke-width:10px"/><line x1="289.796" y1="201.21" x2="256.543" y2="271.006" style="fill:none;stroke:#000;stroke-linecap:round;stroke-linejoin:round;stroke-width:10px"/><line x1="323.185" y1="201.21" x2="289.932" y2="271.006" style="fill:none;stroke:#000;stroke-linecap:round;stroke-linejoin:round;stroke-width:10px"/><line x1="251.375" y1="392.252" x2="193.664" y2="392.252" style="fill:none;stroke:#000;stroke-linecap:round;stroke-linejoin:round;stroke-width:10px"/><line x1="344.482" y1="229.542" x2="324.727" y2="271.006" style="fill:none;stroke:#000;stroke-linecap:round;stroke-linejoin:round;stroke-width:10px"/><line x1="212.145" y1="441.892" x2="212.145" y2="483.672" style="fill:none;stroke:#000;stroke-linecap:round;stroke-linejoin:round;stroke-width:10px"/><line x1="212.145" y1="408.955" x2="212.145" y2="413.919" style="fill:none;stroke:#000;stroke-linecap:round;stroke-linejoin:round;stroke-width:10px"/><polyline points="334.482 185.085 334.482 25.762 122.787 25.762 122.787 185.085" style="fill:none;stroke:#000;stroke-linecap:round;stroke-linejoin:round;stroke-width:10px"/><path d="M117.552,267.942V350.23a6.852,6.852,0,0,0,6.852,6.852h0a6.852,6.852,0,0,0,6.852-6.852V327.009a6.851,6.851,0,0,1,6.851-6.852h0a6.852,6.852,0,0,1,6.852,6.852V362.1a6.851,6.851,0,0,0,6.851,6.852h0a6.852,6.852,0,0,0,6.852-6.852V304.585a6.851,6.851,0,0,1,6.852-6.851h0a6.851,6.851,0,0,1,6.851,6.851V350.23a6.852,6.852,0,0,0,6.852,6.852h0a6.852,6.852,0,0,0,6.852-6.852V337.009a6.851,6.851,0,0,1,6.851-6.852h0a6.851,6.851,0,0,0,6.852-6.851V267.942" style="fill:none;stroke:#000;stroke-linejoin:round;stroke-width:10px"/><line x1="137.409" y1="294.267" x2="137.409" y2="273.358" style="fill:none;stroke:#000;stroke-linecap:round;stroke-linejoin:round;stroke-width:10px"/><line x1="185.409" y1="286.484" x2="185.409" y2="286.606" style="fill:none;stroke:#000;stroke-linecap:round;stroke-linejoin:round;stroke-width:10px"/><line x1="151.112" y1="383.934" x2="151.112" y2="384.057" style="fill:none;stroke:#000;stroke-linecap:round;stroke-linejoin:round;stroke-width:10px"/><line x1="202.787" y1="25.762" x2="202.787" y2="185.085" style="fill:none;stroke:#000;stroke-linecap:round;stroke-linejoin:round;stroke-width:10px"/></svg>