<svg id="Layer_1" data-name="Layer 1" xmlns="http://www.w3.org/2000/svg" viewBox="0 0 512 512"><path d="M305.745,295.6l-46.358-70.971a12.854,12.854,0,0,1,3.732-17.792h0a12.854,12.854,0,0,1,17.792,3.732l14.58,22.32" style="fill:none;stroke:#000;stroke-linecap:round;stroke-linejoin:round;stroke-width:10px"/><path d="M327.269,281.537l-36.744-56.252a12.445,12.445,0,0,1,3.614-17.226h0a12.445,12.445,0,0,1,17.226,3.614l36.744,56.251" style="fill:none;stroke:#000;stroke-linecap:round;stroke-linejoin:round;stroke-width:10px"/><path d="M415.3,362.3l-6.518-9.979a73.242,73.242,0,0,1-11.9-38.346h0c-.319-13.641-7.18-25.133-14.642-36.557l-10.927-16.728-32.9-50.362a10.3,10.3,0,0,0-14.253-2.99h0a13.086,13.086,0,0,0-3.8,18.113" style="fill:none;stroke:#000;stroke-linecap:round;stroke-linejoin:round;stroke-width:10px"/><path d="M268.869,239.252a12.3,12.3,0,0,0-17.018-3.57h0a12.3,12.3,0,0,0-3.57,17.018l50.946,78a6.953,6.953,0,0,1-2.019,9.624h0L281.615,316.89h0a23.68,23.68,0,0,0-32.775-6.875l-2.209,1.443,42.608,65.228c5.673,8.686,12.545,10.2,18.748,9.656a41.154,41.154,0,0,1,29.475,8.649l.137.11a14.5,14.5,0,0,1,3.067,3.381l5.755,8.81" style="fill:none;stroke:#000;stroke-linecap:round;stroke-linejoin:round;stroke-width:10px"/><rect x="338.038" y="381.146" width="110.168" height="44.835" rx="9.027" transform="translate(-156.704 280.68) rotate(-33.153)" style="fill:none;stroke:#000;stroke-linecap:round;stroke-linejoin:round;stroke-width:10px"/><polyline points="445.788 396.493 470.543 434.392 391.534 486 366.779 448.102" style="fill:none;stroke:#000;stroke-linecap:round;stroke-linejoin:round;stroke-width:10px"/><path d="M119.805,182.745l-8.9-20.8A40.6,40.6,0,0,0,89.54,140.57l-20.805-8.895,20.805-8.9a40.6,40.6,0,0,0,21.37-21.37l8.9-20.8,8.895,20.8a40.6,40.6,0,0,0,21.371,21.37l20.8,8.9-20.8,8.895A40.6,40.6,0,0,0,128.7,161.941Z" style="fill:none;stroke:#000;stroke-linejoin:round;stroke-width:10px"/><path d="M62.828,101.976,59.106,93.27a16.988,16.988,0,0,0-8.943-8.943l-8.706-3.722,8.706-3.722a16.988,16.988,0,0,0,8.943-8.943l3.722-8.706L66.55,67.94a16.988,16.988,0,0,0,8.943,8.943L84.2,80.605l-8.706,3.722A16.988,16.988,0,0,0,66.55,93.27Z" style="fill:none;stroke:#000;stroke-linejoin:round;stroke-width:10px"/><circle cx="155.917" cy="51.328" r="5.432" style="fill:none;stroke:#000;stroke-linejoin:round;stroke-width:10px"/><path d="M274.071,353.465l-24.646,21.509A302.726,302.726,0,0,1,230.014,26l171.66,102.872a183.987,183.987,0,0,0-.642,113.789L374.6,265.726" style="fill:none;stroke:#000;stroke-linecap:round;stroke-linejoin:round;stroke-width:10px"/><path d="M246.24,102.789q2.746-7.353,5.861-14.531" style="fill:none;stroke:#000;stroke-linecap:round;stroke-linejoin:round;stroke-width:10px"/><path d="M227.731,190.937q.829-14.613,3.039-28.874a300.29,300.29,0,0,1,7.273-33.957" style="fill:none;stroke:#000;stroke-linecap:round;stroke-linejoin:round;stroke-width:10px"/></svg>