<svg id="Layer_1" data-name="Layer 1" xmlns="http://www.w3.org/2000/svg" viewBox="0 0 512 512"><path d="M303.478,381.275l-30.357,16.633-15.136-15.681a37.6,37.6,0,0,1-6.348-43.386h0A159.759,159.759,0,0,0,246.848,183.5l-.67-1.122a27.9,27.9,0,0,1,24-42.217l1.287,0a63.734,63.734,0,0,1,54.6,31.034l10.54,17.633a159.759,159.759,0,0,1,8.953,146.648h0A96.986,96.986,0,0,1,303.478,381.275Z" style="fill:none;stroke:#000;stroke-linejoin:round;stroke-width:10px"/><path d="M252.844,247.2q-.339-2.4-.771-4.8" style="fill:none;stroke:#000;stroke-linecap:round;stroke-linejoin:round;stroke-width:10px"/><path d="M249.458,298.01a124.2,124.2,0,0,0,4.579-35.648" style="fill:none;stroke:#000;stroke-linecap:round;stroke-linejoin:round;stroke-width:10px"/><path d="M259.453,142.24l19.12,24.677a179.746,179.746,0,0,1,10.91,204.421L246.951,440.32" style="fill:none;stroke:#000;stroke-linecap:round;stroke-linejoin:round;stroke-width:10px"/><path d="M269.272,404.118l3.489.909a22.607,22.607,0,0,1,16.895,21.008h0" style="fill:none;stroke:#000;stroke-linecap:round;stroke-linejoin:round;stroke-width:10px"/><path d="M269.1,404.392l-1.621-.458a25.6,25.6,0,0,0-26.871,8.549h0" style="fill:none;stroke:#000;stroke-linecap:round;stroke-linejoin:round;stroke-width:10px"/><path d="M270.947,401.4l-8.976-3.054a36.615,36.615,0,0,1-23.73-25.784h0" style="fill:none;stroke:#000;stroke-linecap:round;stroke-linejoin:round;stroke-width:10px"/><path d="M270.044,402.865l10.533,1.674a35.883,35.883,0,0,0,29.526-8.672" style="fill:none;stroke:#000;stroke-linecap:round;stroke-linejoin:round;stroke-width:10px"/><path d="M262.05,217.324l.61-.317a47.369,47.369,0,0,0,25.251-36.851h0a95.76,95.76,0,0,0,44.3,8.634l4.357-.2" style="fill:none;stroke:#000;stroke-linejoin:round;stroke-width:10px"/><polyline points="268.552 248.287 311.249 234.966 355.077 234.58" style="fill:none;stroke:#000;stroke-linejoin:round;stroke-width:10px"/><path d="M269.452,268.442h0a92.7,92.7,0,0,0,45.173-11.467l.456-.251,11.6,2.3a57.667,57.667,0,0,0,31.9-2.742h0" style="fill:none;stroke:#000;stroke-linejoin:round;stroke-width:10px"/><polyline points="265.485 301.065 315.148 296.716 355.434 305.505" style="fill:none;stroke:#000;stroke-linejoin:round;stroke-width:10px"/><path d="M259.4,321.489h0a79.25,79.25,0,0,0,43.718.116l8.069-2.291h0a55.39,55.39,0,0,0,36.628,10.163l.048,0" style="fill:none;stroke:#000;stroke-linejoin:round;stroke-width:10px"/></svg>