<svg id="Layer_1" data-name="Layer 1" xmlns="http://www.w3.org/2000/svg" viewBox="0 0 512 512"><path d="M279.513,229.182l62.176-108.807,83.389,145.931A96.043,96.043,0,0,1,409.6,381.869h0a95.939,95.939,0,0,1-135.826,0" style="fill:none;stroke:#000;stroke-linecap:round;stroke-linejoin:round;stroke-width:10px"/><path d="M329.068,408.716a140.679,140.679,0,0,1-15.115,17.859h0a140.4,140.4,0,0,1-198.561,0h0a140.4,140.4,0,0,1-22.624-168.94L214.672,44.3l85.244,149.175" style="fill:none;stroke:#000;stroke-linejoin:round;stroke-width:10px"/><path d="M210.87,300.475H177.409v40.584c0,3.091-3.494,4.7-7.122,4.7-3.494,0-7.123-1.612-7.123-4.7V252.1c0-3.225,3.629-4.569,7.123-4.569,3.628,0,7.122,1.344,7.122,4.569v37.09H210.87V252.1c0-3.225,3.629-4.569,7.123-4.569,3.628,0,7.122,1.344,7.122,4.569v88.961c0,3.091-3.494,4.7-7.122,4.7-3.494,0-7.123-1.612-7.123-4.7Z"/><path d="M256.29,280.277c10.391,0,19.17,7.077,19.17,17.827,0,19.26-29.025,25.531-29.025,35.833v3.4h26.338c1.612,0,3.135,1.881,3.135,4.12s-1.523,4.3-3.135,4.3H240.881c-1.791,0-4.21-1.254-4.21-3.135v-8.69c0-14.512,29.293-21.768,29.293-35.564,0-4.39-2.866-9.406-9.674-9.406-5.017,0-9.049,2.777-9.049,8.868,0,1.792-1.88,3.584-5.016,3.584-2.508,0-4.3-1.255-4.3-5.286C237.925,286.548,246.525,280.277,256.29,280.277Z"/><path d="M286.258,316.6V277.5c0-21.77,13.035-29.967,30.1-29.967,16.932,0,30.236,8.2,30.236,29.967V316.6c0,21.769-13.3,29.967-30.236,29.967C299.293,346.569,286.258,338.371,286.258,316.6ZM332.351,277.5c0-11.825-6.047-17.335-15.991-17.335-10.079,0-15.858,5.51-15.858,17.335V316.6c0,11.825,5.779,17.335,15.858,17.335,9.944,0,15.991-5.51,15.991-17.335Z"/><path d="M135.075,404a108.114,108.114,0,0,1-31.664-74.059" style="fill:none;stroke:#000;stroke-linecap:round;stroke-linejoin:round;stroke-width:10px"/></svg>